<?xml version="1.0" standalone="no"?>
<!DOCTYPE svg PUBLIC "-//W3C//DTD SVG 20010904//EN"
 "http://www.w3.org/TR/2001/REC-SVG-20010904/DTD/svg10.dtd">
<svg version="1.0" xmlns="http://www.w3.org/2000/svg"
 width="300.000000pt" height="300.000000pt" viewBox="0 0 300.000000 300.000000"
 preserveAspectRatio="xMidYMid meet">
<metadata>
Created by potrace 1.10, written by Peter Selinger 2001-2011
</metadata>
<g transform="translate(0.000000,300.000000) scale(0.100000,-0.100000)"
fill="#000000" stroke="none">
<path d="M1074 2244 c-7 -16 -71 -171 -144 -344 -72 -173 -134 -320 -136 -326
-3 -7 -28 -7 -77 -2 -40 5 -99 6 -133 3 l-61 -6 -31 -82 c-17 -45 -30 -82 -29
-83 1 -1 56 11 122 28 161 41 330 44 445 9 149 -46 281 -132 373 -246 57 -70
94 -140 132 -247 l28 -78 102 0 103 0 -103 263 c-56 144 -171 442 -256 662
-175 457 -180 465 -270 473 -52 4 -54 3 -65 -24z m134 -43 c18 -18 64 -124
134 -307 59 -153 166 -432 239 -619 72 -187 134 -348 136 -357 5 -16 -3 -18
-65 -18 l-70 0 -22 63 c-13 34 -35 87 -50 117 -15 30 -32 77 -39 103 -6 27
-55 160 -108 295 -53 136 -106 274 -119 307 -83 221 -147 381 -155 392 -7 8
-7 18 1 32 17 33 85 29 118 -8z m-98 -141 c17 -47 97 -254 177 -460 80 -206
151 -393 159 -415 l14 -40 -22 30 c-132 177 -310 299 -530 361 -51 15 -94 27
-95 28 -1 1 50 125 113 276 64 151 120 286 125 299 13 32 20 22 59 -79z m-295
-530 c3 -5 29 -12 58 -16 49 -8 46 -9 -58 -15 -60 -4 -150 -16 -198 -28 -110
-26 -110 -26 -101 2 23 74 9 68 159 66 75 -1 138 -5 140 -9z"/>
<path d="M1300 2257 c60 -21 42 20 404 -915 97 -250 176 -458 176 -463 0 -5
52 -9 116 -9 64 0 114 3 112 8 -12 27 -133 335 -287 732 -226 581 -229 588
-262 625 l-27 30 -134 2 c-116 2 -129 1 -98 -10z m220 -32 c37 -19 46 -37 130
-254 37 -97 109 -282 160 -411 180 -461 250 -642 250 -651 0 -5 -35 -9 -79 -9
l-78 0 -33 88 c-18 48 -61 159 -96 247 -34 88 -108 277 -163 420 -84 220 -207
528 -227 573 -9 18 100 16 136 -3z"/>
<path d="M2353 2053 c-280 -469 -393 -667 -390 -677 4 -13 -6 -30 241 389
l206 350 -2 -468 -3 -467 88 0 87 0 0 545 0 545 -49 0 -49 0 -129 -217z m187
-333 l0 -510 -50 0 -50 0 0 413 c0 226 -3 435 -6 462 -4 44 -1 56 26 98 23 35
36 47 55 47 l25 0 0 -510z"/>
<path d="M606 1138 c3 -5 10 -6 15 -3 13 9 11 12 -6 12 -8 0 -12 -4 -9 -9z"/>
</g>
</svg>
